<svg xmlns="http://www.w3.org/2000/svg" viewBox="0 0 512 512" role="img">
  <title>Rocket favicon</title>
  <defs>
    <linearGradient id="body" x1="0" x2="0" y1="0" y2="1">
      <stop offset="0" stop-color="#f5efe3" />
      <stop offset="1" stop-color="#e9e0d1" />
    </linearGradient>
    <linearGradient id="fin" x1="0" x2="0" y1="0" y2="1">
      <stop offset="0" stop-color="#ee5a2b" />
      <stop offset="1" stop-color="#d4471d" />
    </linearGradient>
    <linearGradient id="nose" x1="0" x2="0" y1="0" y2="1">
      <stop offset="0" stop-color="#f96a38" />
      <stop offset="1" stop-color="#e24f1d" />
    </linearGradient>
    <linearGradient id="shadow" x1="0" x2="0" y1="0" y2="1">
      <stop offset="0" stop-color="rgba(0,0,0,0.18)" />
      <stop offset="1" stop-color="rgba(0,0,0,0.05)" />
    </linearGradient>
  </defs>
  <rect width="512" height="512" rx="160" fill="#f79433" />
  <ellipse cx="256" cy="402" rx="108" ry="44" fill="url(#shadow)" />
  <path d="M256 60c75 0 136 168 136 248 0 100-61 152-136 152s-136-52-136-152c0-80 61-248 136-248z" fill="url(#body)" />
  <path d="M256 52c64 0 116 98 116 154 0 12-1 24-3 36-30 14-69 22-113 22s-83-8-113-22c-2-12-3-24-3-36 0-56 52-154 116-154z" fill="url(#nose)" />
  <circle cx="256" cy="236" r="78" fill="#314a56" />
  <circle cx="256" cy="236" r="58" fill="#1f3039" />
  <circle cx="276" cy="216" r="22" fill="#5d7a87" />
  <path d="M154 276c-36 28-58 92-58 140 32-4 72-24 96-60-24-24-36-52-38-80z" fill="url(#fin)" />
  <path d="M358 276c36 28 58 92 58 140-32-4-72-24-96-60 24-24 36-52 38-80z" fill="url(#fin)" />
  <path d="M256 360c25 0 44 20 44 44 0 8-2 16-6 22-11 4-24 6-38 6s-27-2-38-6c-4-6-6-14-6-22 0-24 19-44 44-44z" fill="#ee5a2b" />
</svg>

